<svg width="24" height="24" viewBox="0 0 24 24" fill="none" xmlns="http://www.w3.org/2000/svg">
<path fill-rule="evenodd" clip-rule="evenodd" d="M8 4C7.44772 4 7 4.44772 7 5V6H6C4.89543 6 4 6.89543 4 8V18C4 19.1046 4.89543 20 6 20H18C19.1046 20 20 19.1046 20 18V8C20 6.89543 19.1046 6 18 6H17V5C17 4.44772 16.5523 4 16 4C15.4477 4 15 4.44772 15 5V6H9V5C9 4.44772 8.55228 4 8 4ZM8 9C7.44772 9 7 9.44772 7 10C7 10.5523 7.44772 11 8 11H16C16.5523 11 17 10.5523 17 10C17 9.44772 16.5523 9 16 9H8Z" fill="#111827"/>
</svg>
