<svg width="24" height="24" viewBox="0 0 24 24" fill="none" xmlns="http://www.w3.org/2000/svg">
<path d="M11 4C10.4477 4 10 4.44772 10 5C10 5.55228 10.4477 6 11 6H13C13.5523 6 14 5.55228 14 5C14 4.44772 13.5523 4 13 4H11Z" fill="#111827"/>
<path fill-rule="evenodd" clip-rule="evenodd" d="M6 7C6 5.89543 6.89543 5 8 5C8 6.65685 9.34315 8 11 8H13C14.6569 8 16 6.65685 16 5C17.1046 5 18 5.89543 18 7V18C18 19.1046 17.1046 20 16 20H8C6.89543 20 6 19.1046 6 18V7ZM9 11C8.44772 11 8 11.4477 8 12C8 12.5523 8.44772 13 9 13H9.01C9.56228 13 10.01 12.5523 10.01 12C10.01 11.4477 9.56228 11 9.01 11H9ZM12 11C11.4477 11 11 11.4477 11 12C11 12.5523 11.4477 13 12 13H15C15.5523 13 16 12.5523 16 12C16 11.4477 15.5523 11 15 11H12ZM9 15C8.44772 15 8 15.4477 8 16C8 16.5523 8.44772 17 9 17H9.01C9.56228 17 10.01 16.5523 10.01 16C10.01 15.4477 9.56228 15 9.01 15H9ZM12 15C11.4477 15 11 15.4477 11 16C11 16.5523 11.4477 17 12 17H15C15.5523 17 16 16.5523 16 16C16 15.4477 15.5523 15 15 15H12Z" fill="#111827"/>
</svg>
