<svg width="24" height="22.66" viewBox="0 0 36 34" fill="none" xmlns="http://www.w3.org/2000/svg">
<path fill-rule="evenodd" clip-rule="evenodd" d="M15.8721 28.217H8.81784C3.52714 28.217 0 24.6899 0 19.3992V8.81784C0 3.52714 3.52714 0 8.81784 0H26.4535C31.7442 0 35.2714 3.52714 35.2714 8.81784V19.3992C35.2714 24.6899 31.7442 28.217 26.4535 28.217V31.9734C26.4535 33.3843 24.8839 34.2133 23.72 33.4374L15.8721 28.217ZM26.132 11.488L26.1526 11.4674L25.8769 11.2207C25.5951 10.9685 25.2762 10.7104 24.8979 10.5295L24.8931 10.5272C24.3311 10.269 23.7009 10.0964 23.0194 10.0905C22.831 10.0541 22.6369 10.0576 22.4497 10.1009C22.2492 10.1473 22.0618 10.2381 21.9012 10.3667C21.7406 10.4953 21.611 10.6584 21.5219 10.8438C21.4328 11.0293 21.3865 11.2324 21.3865 11.4381C21.3865 11.6439 21.4328 11.847 21.5219 12.0324C21.611 12.2179 21.7406 12.3809 21.9012 12.5095C22.0618 12.6381 22.2492 12.729 22.4497 12.7753C22.6358 12.8184 22.8287 12.8221 23.016 12.7864C23.2431 12.793 23.4528 12.8665 23.6985 12.9827C24.2847 13.2704 24.7267 13.8546 24.7151 14.5122L24.7151 14.5184C24.7151 15.4499 23.9345 16.2375 22.9804 16.2508H18.6443C18.0517 16.2508 17.6412 16.1433 17.3456 16.004C17.0508 15.865 16.8509 15.6851 16.6885 15.5098C16.543 15.3526 16.4635 15.1976 16.4206 15.0856C16.3991 15.0295 16.387 14.9845 16.3805 14.9561C16.3773 14.9419 16.3755 14.932 16.3747 14.9271L16.3743 14.9246L16.3716 14.9005L16.3643 14.8737C16.316 14.6984 16.2336 14.5343 16.1219 14.3907C16.0102 14.2472 15.8713 14.1271 15.7132 14.0372C15.555 13.9474 15.3808 13.8896 15.2003 13.8671C15.0198 13.8446 14.8367 13.8579 14.6613 13.9061C14.486 13.9544 14.3218 14.0368 14.1783 14.1485C14.0348 14.2602 13.9147 14.3991 13.8248 14.5572C13.735 14.7154 13.6772 14.8896 13.6547 15.0701C13.6325 15.2478 13.645 15.4281 13.6915 15.601L13.6926 15.6055C13.6945 15.6139 13.6973 15.6253 13.701 15.6396C13.7083 15.668 13.7191 15.7078 13.7342 15.7571C13.7644 15.8556 13.8116 15.993 13.8814 16.1552C14.0207 16.479 14.2523 16.9072 14.6225 17.3247C15.3698 18.1673 16.7532 18.9468 18.6313 18.932L18.6327 18.9319L22.9682 18.932C25.4158 18.932 27.3969 16.9545 27.3818 14.5172C27.3816 13.6374 27.1291 12.8501 26.6908 12.1613C26.5333 11.9137 26.3333 11.6873 26.132 11.488ZM19.4498 11.3958L19.6968 11.6635C20.073 12.071 20.3155 12.4857 20.4644 12.7991C20.539 12.9562 20.5906 13.0889 20.624 13.1841C20.6407 13.2317 20.653 13.2701 20.6613 13.2976L20.6628 13.3026C20.7475 13.469 20.7975 13.6511 20.8094 13.8377C20.8223 14.0384 20.7909 14.2394 20.7175 14.4265C20.6441 14.6137 20.5305 14.7825 20.3847 14.9209C20.2389 15.0593 20.0644 15.164 19.8737 15.2276C19.683 15.2911 19.4806 15.312 19.2809 15.2888C19.0812 15.2655 18.8891 15.1987 18.7181 15.093C18.5471 14.9873 18.4013 14.8454 18.2912 14.6771C18.1908 14.5236 18.1222 14.3517 18.0893 14.1716L18.0817 14.1557C18.0644 14.1201 18.0367 14.0665 17.9976 14.0003C17.9193 13.8676 17.7965 13.6865 17.6217 13.4987C17.4454 13.3093 17.2377 13.1284 16.952 12.9924C16.6665 12.8566 16.2851 12.757 15.7521 12.757L11.416 12.757C10.4619 12.7702 9.68127 13.5578 9.68127 14.4894L9.68127 14.4956C9.66974 15.1532 10.1116 15.7374 10.6979 16.0251C10.9435 16.1413 11.1532 16.2148 11.3804 16.2214C11.5677 16.1857 11.7606 16.1894 11.9467 16.2324C12.1471 16.2788 12.3346 16.3697 12.4952 16.4983C12.6558 16.6269 12.7854 16.7899 12.8745 16.9754C12.9636 17.1608 13.0098 17.3639 13.0098 17.5697C13.0098 17.7754 12.9636 17.9785 12.8745 18.164C12.7854 18.3494 12.6558 18.5125 12.4952 18.6411C12.3346 18.7697 12.1471 18.8605 11.9467 18.9069C11.7595 18.9502 11.5654 18.9537 11.377 18.9173C10.6954 18.9113 10.0653 18.7388 9.50329 18.4806L9.49958 18.4789C8.00603 17.7714 7.00052 16.2619 7.00009 14.505C6.98498 12.0677 8.96607 10.0903 11.4137 10.0903L15.7491 10.0903L15.7506 10.0903C17.3866 10.0769 18.6271 10.7161 19.4101 11.4355L19.4498 11.3958Z" fill="#666666"/>
</svg>
