<svg width="24" height="24" viewBox="0 0 24 24" fill="none" xmlns="http://www.w3.org/2000/svg">
<path d="M12.8944 4.55279C12.725 4.214 12.3788 4 12 4C11.6212 4 11.275 4.214 11.1056 4.55279L4.10558 18.5528C3.92823 18.9075 3.97724 19.3335 4.2305 19.6386C4.48376 19.9438 4.89342 20.0704 5.27473 19.9615L10.2747 18.5329C10.704 18.4103 11 18.0179 11 17.5714V13C11 12.4477 11.4477 12 12 12C12.5523 12 13 12.4477 13 13V17.5714C13 18.0179 13.296 18.4103 13.7253 18.5329L18.7253 19.9615C19.1066 20.0704 19.5162 19.9438 19.7695 19.6386C20.0228 19.3335 20.0718 18.9075 19.8944 18.5528L12.8944 4.55279Z" fill="#111827"/>
</svg>
