<svg width="25" height="24" viewBox="0 0 25 24" fill="none" xmlns="http://www.w3.org/2000/svg">
<g id="Icon/Outline/device-mobile">
<path id="Icon (Stroke)" fill-rule="evenodd" clip-rule="evenodd" d="M6.66797 6.4C6.66797 5.07452 7.74249 4 9.06797 4H15.468C16.7935 4 17.868 5.07452 17.868 6.4V17.6C17.868 18.9255 16.7935 20 15.468 20H9.06797C7.74249 20 6.66797 18.9255 6.66797 17.6V6.4ZM9.06797 5.6C8.62614 5.6 8.26797 5.95817 8.26797 6.4V17.6C8.26797 18.0418 8.62614 18.4 9.06797 18.4H15.468C15.9098 18.4 16.268 18.0418 16.268 17.6V6.4C16.268 5.95817 15.9098 5.6 15.468 5.6H9.06797ZM11.468 16.8C11.468 16.3582 11.8261 16 12.268 16H12.276C12.7178 16 13.076 16.3582 13.076 16.8C13.076 17.2418 12.7178 17.6 12.276 17.6H12.268C11.8261 17.6 11.468 17.2418 11.468 16.8Z" fill="#484851"/>
</g>
</svg>
