<svg width="24" height="24" viewBox="0 0 24 24" fill="none" xmlns="http://www.w3.org/2000/svg">
<path fill-rule="evenodd" clip-rule="evenodd" d="M7.2 6.6C6.31634 6.6 5.6 7.31634 5.6 8.2V16.2C5.6 17.0837 6.31634 17.8 7.2 17.8H10.4C11.2837 17.8 12 17.0837 12 16.2V15.4C12 14.9582 12.3582 14.6 12.8 14.6C13.2418 14.6 13.6 14.9582 13.6 15.4V16.2C13.6 17.9673 12.1673 19.4 10.4 19.4H7.2C5.43269 19.4 4 17.9673 4 16.2V8.2C4 6.43269 5.43269 5 7.2 5H10.4C12.1673 5 13.6 6.43269 13.6 8.2V9C13.6 9.44183 13.2418 9.8 12.8 9.8C12.3582 9.8 12 9.44183 12 9V8.2C12 7.31634 11.2837 6.6 10.4 6.6H7.2ZM15.4343 8.43431C15.7467 8.1219 16.2533 8.1219 16.5657 8.43431L19.7657 11.6343C20.0781 11.9467 20.0781 12.4533 19.7657 12.7657L16.5657 15.9657C16.2533 16.2781 15.7467 16.2781 15.4343 15.9657C15.1219 15.6533 15.1219 15.1467 15.4343 14.8343L17.2686 13L8 13C7.55817 13 7.2 12.6418 7.2 12.2C7.2 11.7582 7.55817 11.4 8 11.4L17.2686 11.4L15.4343 9.56568C15.1219 9.25327 15.1219 8.74673 15.4343 8.43431Z" fill="#515192"/>
</svg>
