<svg width="24" height="24" viewBox="0 0 24 24" fill="none" xmlns="http://www.w3.org/2000/svg">
<path fill-rule="evenodd" clip-rule="evenodd" d="M4.94118 4C5.46097 4 5.88235 4.42138 5.88235 4.94118V6.84498C7.34933 5.10573 9.54493 4 12 4C16.0803 4 19.4459 7.05391 19.9382 11.0012C20.0025 11.517 19.6365 11.9873 19.1207 12.0516C18.6049 12.1159 18.1346 11.7499 18.0703 11.2341C17.6941 8.2173 15.119 5.88235 12 5.88235C9.96275 5.88235 8.1567 6.87836 7.0444 8.41176H9.35294C9.87274 8.41176 10.2941 8.83314 10.2941 9.35294C10.2941 9.87274 9.87274 10.2941 9.35294 10.2941H4.94118C4.42138 10.2941 4 9.87274 4 9.35294V4.94118C4 4.42138 4.42138 4 4.94118 4ZM4.87933 11.9484C5.39513 11.8841 5.86541 12.2501 5.92973 12.7659C6.30592 15.7827 8.881 18.1176 12 18.1176C14.0373 18.1176 15.8433 17.1216 16.9556 15.5882H14.6471C14.1273 15.5882 13.7059 15.1669 13.7059 14.6471C13.7059 14.1273 14.1273 13.7059 14.6471 13.7059H19.0588C19.5786 13.7059 20 14.1273 20 14.6471V19.0588C20 19.5786 19.5786 20 19.0588 20C18.539 20 18.1176 19.5786 18.1176 19.0588V17.155C16.6507 18.8943 14.4551 20 12 20C7.91967 20 4.55406 16.9461 4.06185 12.9988C3.99753 12.483 4.36353 12.0127 4.87933 11.9484Z" fill="#515192"/>
</svg>
