<svg width="953" height="960" viewBox="0 0 953 960" fill="none" xmlns="http://www.w3.org/2000/svg">
<g clip-path="url(#clip0_1425_45402)">
<path fill-rule="evenodd" clip-rule="evenodd" d="M736.98 0H405.98V286.358H736.98V0Z" fill="#DEDEF8"/>
<path fill-rule="evenodd" clip-rule="evenodd" d="M1248 692.078H732.043V960H1248V692.078Z" fill="#DEDEF8"/>
<path fill-rule="evenodd" clip-rule="evenodd" d="M1248 0H733.365V696.947H1248V0Z" fill="#ADADED"/>
<path fill-rule="evenodd" clip-rule="evenodd" d="M1023.89 779.272H977.565L976.448 716.532C966.575 716.598 952.328 726.289 949.949 743.694C949.797 744.811 949.724 745.94 949.731 747.07C949.731 752.136 949.903 779.272 949.903 779.272H905.191V886.632H1023.89V779.272Z" fill="#FFF8F8"/>
<path fill-rule="evenodd" clip-rule="evenodd" d="M733.582 576.501H406.469V960H733.582V576.501Z" fill="#FCE9EA"/>
<path d="M927.191 807.478C927.191 807.478 927.125 807.478 927.092 807.478L829.932 806.817C822.266 806.764 816.094 800.515 816.147 792.853C816.2 785.224 822.405 779.074 830.024 779.074C830.057 779.074 830.09 779.074 830.123 779.074L927.284 779.734C934.949 779.787 941.122 786.043 941.069 793.698C941.016 801.328 934.811 807.478 927.191 807.478Z" fill="#FFF8F8"/>
<path d="M946.142 890.45H945.984L886.523 889.783C878.692 889.697 872.421 883.283 872.507 875.455C872.573 869.623 876.148 864.655 881.21 862.542L879.108 862.515C871.278 862.429 865.006 856.015 865.092 848.188C865.158 842.13 869.024 837.004 874.397 835.036L873.148 835.023C865.317 834.937 859.046 828.523 859.132 820.695C859.218 812.927 865.548 806.685 873.3 806.685H873.458L932.919 807.345C940.75 807.431 947.021 813.845 946.935 821.673C946.869 827.73 943.003 832.863 937.631 834.825L938.886 834.838C946.717 834.924 952.988 841.338 952.902 849.165C952.836 854.998 949.261 859.965 944.199 862.079L946.301 862.106C954.132 862.191 960.403 868.605 960.317 876.433C960.231 884.201 953.9 890.443 946.149 890.443L946.142 890.45Z" fill="#FCE9EA"/>
<path fill-rule="evenodd" clip-rule="evenodd" d="M407.044 0H-44.0859V645.43H407.044V0Z" fill="#8E8ECF"/>
<path fill-rule="evenodd" clip-rule="evenodd" d="M407.045 645.43H21.2305V960H407.045V645.43Z" fill="#F7CCCF"/>
<path fill-rule="evenodd" clip-rule="evenodd" d="M377.961 798.989C377.961 796.083 376.805 793.295 374.75 791.241C372.694 789.187 369.906 788.031 366.998 788.031H330.699V809.955H366.998C369.906 809.955 372.694 808.799 374.75 806.744C376.805 804.69 377.961 801.902 377.961 798.996V798.989Z" fill="#8E8ECF"/>
<path fill-rule="evenodd" clip-rule="evenodd" d="M224.083 685.572C288.136 685.572 340.136 737.551 340.136 801.579C340.136 865.606 288.136 917.586 224.083 917.586C160.029 917.586 108.029 865.606 108.029 801.579C108.029 737.551 160.029 685.572 224.083 685.572Z" fill="#ADADED"/>
<path fill-rule="evenodd" clip-rule="evenodd" d="M222.265 698.505C279.75 698.505 326.418 745.154 326.418 802.616C326.418 860.078 279.75 906.726 222.265 906.726C164.781 906.726 118.113 860.078 118.113 802.616C118.113 745.154 164.781 698.505 222.265 698.505Z" fill="#8E8ECF"/>
<path fill-rule="evenodd" clip-rule="evenodd" d="M222.465 707.007C279.95 707.007 326.617 751.753 326.617 806.863C326.617 861.973 279.95 906.713 222.465 906.713C164.98 906.713 118.312 861.967 118.312 806.863C118.312 751.76 164.98 707.007 222.465 707.007Z" fill="#FCE9EA"/>
<path fill-rule="evenodd" clip-rule="evenodd" d="M225.174 816.15C239.659 794.141 236.236 775.315 244.503 755.274C249.419 743.364 255.737 743.43 259.266 750.451C262.682 757.255 263.482 770.592 257.851 785.89C249.624 808.224 235.199 817.802 225.174 816.157V816.15Z" fill="#F2AAAF"/>
<path fill-rule="evenodd" clip-rule="evenodd" d="M226.258 821.204C247.312 817.789 253.266 800.284 268.696 792.635C277.861 788.09 282.646 793.963 282.137 802.563C281.648 810.899 276.183 821.798 264.929 828.259C248.494 837.691 233.144 831.7 226.258 821.204Z" fill="#F2AAAF"/>
<path fill-rule="evenodd" clip-rule="evenodd" d="M229.409 834.375C246.26 842.143 255.029 831.726 268.616 833.49C276.691 834.54 278.905 841.377 276.44 847.685C274.047 853.802 267.254 859.424 257.124 858.809C242.335 857.904 232.105 845.776 229.402 834.375H229.409Z" fill="#F2AAAF"/>
<path fill-rule="evenodd" clip-rule="evenodd" d="M224.063 816.454C209.578 794.445 213.008 775.625 204.734 755.577C199.818 743.668 193.5 743.734 189.972 750.755C186.549 757.559 185.749 770.896 191.386 786.194C199.613 808.528 214.039 818.106 224.057 816.461L224.063 816.454Z" fill="#F2AAAF"/>
<path fill-rule="evenodd" clip-rule="evenodd" d="M222.98 821.508C201.927 818.093 195.973 800.588 180.542 792.939C171.377 788.394 166.592 794.266 167.101 802.867C167.59 811.203 173.055 822.102 184.309 828.563C200.744 837.995 216.095 832.004 222.98 821.508Z" fill="#F2AAAF"/>
<path fill-rule="evenodd" clip-rule="evenodd" d="M219.828 834.679C202.977 842.447 194.208 832.03 180.621 833.794C172.546 834.844 170.332 841.681 172.797 847.989C175.189 854.106 181.982 859.728 192.113 859.113C206.902 858.208 217.132 846.08 219.834 834.679H219.828Z" fill="#F2AAAF"/>
<path fill-rule="evenodd" clip-rule="evenodd" d="M81.2266 894.942C78.2595 894.816 75.3651 893.356 73.8518 890.265C73.2438 889.023 72.9795 887.656 72.9068 886.249C72.6293 837.824 72.0015 789.398 72.0742 740.973C72.1997 721.169 84.9536 702.224 104.217 695.064L117.909 690.09C117.909 690.09 118.748 689.403 121.999 689.581C125.046 690.024 125.878 690.671 127.24 691.887C128.462 692.977 129.282 694.397 129.678 695.929L129.942 697.495H129.136L128.066 697.515L126.896 697.7L126.123 698.01L112.431 702.984C102.009 706.855 93.4914 714.18 87.8943 723.21C85.3567 727.246 83.4007 731.626 82.1451 736.177C80.949 740.279 80.3146 744.559 80.2882 748.886C80.2618 767.712 80.3345 786.531 80.4732 805.337C80.6517 834.957 80.949 864.556 81.1208 894.162L81.22 894.935L81.2266 894.942Z" fill="#ADADED"/>
<path fill-rule="evenodd" clip-rule="evenodd" d="M129.943 697.501C130.339 701.537 128.357 705.798 124.24 707.509C119.449 709.253 114.565 710.831 110.098 712.899C108.486 713.626 106.926 714.412 105.413 715.284L102.155 717.45C100.08 719.009 98.2035 720.819 96.6043 722.979C94.6681 725.595 93.168 728.521 92.157 731.613C91.1393 734.704 90.6106 737.947 90.604 741.21L91.4367 886.15C91.4367 886.15 91.5622 886.956 91.1195 888.614C90.6503 890.344 89.5996 891.771 88.2052 892.808C86.6986 893.997 84.7756 894.73 82.8328 894.915L81.2204 894.948L81.1212 894.176C80.9494 864.576 80.652 834.97 80.4736 805.35C80.3348 786.544 80.2621 767.719 80.2886 748.899C80.315 744.573 80.9494 740.286 82.1455 736.19C83.4275 731.613 85.3769 727.233 87.8946 723.223C93.4984 714.194 102.01 706.868 112.431 702.997L126.123 698.023C126.123 698.023 126.321 697.858 126.896 697.713C127.366 697.594 128.079 697.488 129.137 697.521H129.943V697.501Z" fill="#8E8ECF"/>
<path fill-rule="evenodd" clip-rule="evenodd" d="M610.214 805.073C603.956 812.881 602.734 823.582 607.069 832.592C611.404 841.608 620.523 847.342 630.528 847.342C636.614 847.342 642.456 844.924 646.758 840.617C651.066 836.317 653.485 830.478 653.485 824.394V774.126C653.485 750.577 667.362 729.188 689.011 719.366L688.951 834.005L688.641 847.335V866.921C688.641 881.017 682.977 894.532 672.893 904.5C662.809 914.468 649.137 920.063 634.876 920.063H439.934V847.335H500.101C517.679 847.335 534.385 839.66 545.824 826.316C567.466 801.09 602.806 759.891 618.521 741.567C623.087 736.243 630.885 735.094 636.793 738.885C641.246 741.739 644.28 746.356 645.139 751.574C645.998 756.793 644.597 762.137 641.286 766.265C632.768 776.894 621.21 791.32 610.201 805.066L610.214 805.073Z" fill="#ADADED"/>
<path fill-rule="evenodd" clip-rule="evenodd" d="M656.088 641.942C656.088 639.597 654.185 637.695 651.839 637.695C649.493 637.695 647.59 639.597 647.59 641.942V755.075C647.59 757.42 649.493 759.323 651.839 759.323C654.185 759.323 656.088 757.42 656.088 755.075V641.942Z" fill="#8E8ECF"/>
<path fill-rule="evenodd" clip-rule="evenodd" d="M655.996 718.936C683.87 721.664 714.109 688.22 708.498 665.676C681.722 662.954 660.661 689.244 655.996 718.936Z" fill="#8E8ECF"/>
<path fill-rule="evenodd" clip-rule="evenodd" d="M656.914 666.297C675.43 668.106 695.513 645.899 691.779 630.924C673.996 629.114 660.013 646.579 656.914 666.297Z" fill="#8E8ECF"/>
<path fill-rule="evenodd" clip-rule="evenodd" d="M647.577 720.509C620.946 724.366 590.403 693.617 594.764 671.733C620.338 667.928 641.749 692.224 647.577 720.509Z" fill="#8E8ECF"/>
<path fill-rule="evenodd" clip-rule="evenodd" d="M647.598 667.215C628.712 669.95 607.037 648.138 610.136 632.615C628.282 629.913 643.468 647.147 647.598 667.215Z" fill="#8E8ECF"/>
<path fill-rule="evenodd" clip-rule="evenodd" d="M450.83 621.445C505.83 626.445 548.956 672.228 548.956 727.893C548.956 783.559 505.83 829.335 450.83 834.342V621.445Z" fill="#8E8ECF"/>
<path fill-rule="evenodd" clip-rule="evenodd" d="M450.764 638.481C496.241 642.616 531.906 680.479 531.906 726.506C531.906 772.534 496.241 810.397 450.764 814.532V638.481Z" fill="#DEDEF8"/>
<path fill-rule="evenodd" clip-rule="evenodd" d="M475.135 667.406C478.241 667.406 480.759 669.897 480.759 672.968C480.759 676.04 478.235 678.53 475.135 678.53C472.036 678.53 469.512 676.04 469.512 672.968C469.512 669.897 472.036 667.406 475.135 667.406Z" fill="#8E8ECF"/>
<path fill-rule="evenodd" clip-rule="evenodd" d="M499.698 701.286C500.795 701.286 501.694 702.172 501.694 703.255C501.694 704.338 500.802 705.223 499.698 705.223C498.594 705.223 497.709 704.338 497.709 703.255C497.709 702.172 498.601 701.286 499.698 701.286Z" fill="#8E8ECF"/>
<path fill-rule="evenodd" clip-rule="evenodd" d="M471.495 773.459C474.601 773.459 477.125 775.949 477.125 779.021C477.125 782.092 474.601 784.582 471.495 784.582C468.389 784.582 465.871 782.092 465.871 779.021C465.871 775.949 468.395 773.459 471.495 773.459Z" fill="#8E8ECF"/>
<path fill-rule="evenodd" clip-rule="evenodd" d="M492.647 742.683C495.766 742.683 498.304 745.187 498.304 748.278C498.304 751.37 495.766 753.873 492.647 753.873C489.528 753.873 486.99 751.363 486.99 748.278C486.99 745.194 489.528 742.683 492.647 742.683Z" fill="#8E8ECF"/>
<path fill-rule="evenodd" clip-rule="evenodd" d="M467.193 713.487C467.953 713.487 468.567 714.095 468.567 714.841C468.567 715.587 467.953 716.195 467.193 716.195C466.433 716.195 465.818 715.587 465.818 714.841C465.818 714.095 466.433 713.487 467.193 713.487Z" fill="#8E8ECF"/>
<path fill-rule="evenodd" clip-rule="evenodd" d="M555.822 621.511C563.95 621.511 570.551 628.11 570.551 636.235C570.551 644.36 563.95 650.959 555.822 650.959C547.693 650.959 541.092 644.36 541.092 636.235C541.092 628.11 547.693 621.511 555.822 621.511Z" fill="#8E8ECF"/>
<path fill-rule="evenodd" clip-rule="evenodd" d="M31.3208 645.43H-42.7441V960H31.3208V645.43Z" fill="#DEDEF8"/>
<path fill-rule="evenodd" clip-rule="evenodd" d="M-6.00325 671.7L27.9564 742.928H-39.9629L-6.00325 671.7Z" fill="#8E8ECF"/>
<path fill-rule="evenodd" clip-rule="evenodd" d="M-5.88995 743.721L28.0697 814.948H-39.8496L-5.88995 743.721Z" fill="#8E8ECF"/>
<path fill-rule="evenodd" clip-rule="evenodd" d="M-6.1087 816.131L27.8509 887.359H-40.0684L-6.1087 816.131Z" fill="#8E8ECF"/>
<path fill-rule="evenodd" clip-rule="evenodd" d="M-5.31575 888.772L28.6439 960H-39.2754L-5.31575 888.772Z" fill="#8E8ECF"/>
<path fill-rule="evenodd" clip-rule="evenodd" d="M1030.87 295.242C945.311 207.283 850.681 222.046 791.637 306.465C855.809 375.665 966.9 376.359 1030.87 295.242Z" fill="#F6F3FF"/>
<path fill-rule="evenodd" clip-rule="evenodd" d="M911.252 249.419C937.288 249.419 958.421 270.551 958.421 296.57C958.421 322.589 937.281 343.72 911.252 343.72C885.222 343.72 864.082 322.589 864.082 296.57C864.082 270.551 885.222 249.419 911.252 249.419Z" fill="#F2AAAF"/>
<path fill-rule="evenodd" clip-rule="evenodd" d="M911.232 276.489C922.327 276.489 931.341 285.499 931.341 296.59C931.341 307.681 922.334 316.691 911.232 316.691C900.13 316.691 891.123 307.681 891.123 296.59C891.123 285.499 900.13 276.489 911.232 276.489Z" fill="#2019BE"/>
<path fill-rule="evenodd" clip-rule="evenodd" d="M916.782 280.783C920.754 280.783 923.979 284.006 923.979 287.976C923.979 291.946 920.754 295.17 916.782 295.17C912.811 295.17 909.586 291.946 909.586 287.976C909.586 284.006 912.811 280.783 916.782 280.783Z" fill="white"/>
<path fill-rule="evenodd" clip-rule="evenodd" d="M1030.87 126.219C945.311 38.2594 850.681 53.0229 791.637 137.442C855.809 206.642 966.9 207.335 1030.87 126.219Z" fill="#F6F3FF"/>
<path fill-rule="evenodd" clip-rule="evenodd" d="M911.252 80.3896C937.288 80.3896 958.421 101.521 958.421 127.54C958.421 153.56 937.281 174.691 911.252 174.691C885.222 174.691 864.082 153.56 864.082 127.54C864.082 101.521 885.222 80.3896 911.252 80.3896Z" fill="#ADADED"/>
<path fill-rule="evenodd" clip-rule="evenodd" d="M911.232 107.466C922.327 107.466 931.341 116.476 931.341 127.567C931.341 138.657 922.334 147.667 911.232 147.667C900.13 147.667 891.123 138.657 891.123 127.567C891.123 116.476 900.13 107.466 911.232 107.466Z" fill="#2019BE"/>
<path fill-rule="evenodd" clip-rule="evenodd" d="M916.782 111.76C920.754 111.76 923.979 114.983 923.979 118.953C923.979 122.923 920.754 126.146 916.782 126.146C912.811 126.146 909.586 122.923 909.586 118.953C909.586 114.983 912.811 111.76 916.782 111.76Z" fill="white"/>
<path fill-rule="evenodd" clip-rule="evenodd" d="M1035.21 402.484H855.438V625.415H1035.21V402.484Z" fill="#8E8ECF"/>
<path fill-rule="evenodd" clip-rule="evenodd" d="M985.243 432.783H805.467V655.708H985.243V432.783Z" fill="#F6F3FF"/>
<path fill-rule="evenodd" clip-rule="evenodd" d="M963.231 504.685H844.633V514.692H963.231V504.685Z" fill="#F2AAAF"/>
<path fill-rule="evenodd" clip-rule="evenodd" d="M963.231 532.6H844.633V542.614H963.231V532.6Z" fill="#F2AAAF"/>
<path fill-rule="evenodd" clip-rule="evenodd" d="M963.231 560.522H844.633V570.536H963.231V560.522Z" fill="#F2AAAF"/>
<path fill-rule="evenodd" clip-rule="evenodd" d="M922.346 589.408H844.15V599.415H922.346V589.408Z" fill="#F2AAAF"/>
<path fill-rule="evenodd" clip-rule="evenodd" d="M623.537 518.372H733.101V497.564H623.537V518.372Z" fill="white"/>
<path fill-rule="evenodd" clip-rule="evenodd" d="M723.723 498.317H701.328V154.187L701.54 154.28L723.723 145.005V498.317Z" fill="#EB5368"/>
<path fill-rule="evenodd" clip-rule="evenodd" d="M448.782 294H426.387V192.083H448.782V294Z" fill="#EB5368"/>
<path fill-rule="evenodd" clip-rule="evenodd" d="M723.829 137.449L673.851 52.8049L631.268 136.009L668.419 195.564L723.829 137.449Z" fill="#F6F3FF"/>
<path fill-rule="evenodd" clip-rule="evenodd" d="M631.09 490.655H723.724V137.343L701.54 146.611L675.966 135.487L652.011 145.441L631.09 135.896V490.655Z" fill="#F2AAAF"/>
<path fill-rule="evenodd" clip-rule="evenodd" d="M690.524 81.5722C684.748 84.3531 678.279 85.9054 671.452 85.9054C666.747 85.9054 662.221 85.1656 657.965 83.7982L673.851 52.8049L690.524 81.5722Z" fill="#515192"/>
<path fill-rule="evenodd" clip-rule="evenodd" d="M631.09 490.655V135.896L652.011 145.442L652.738 145.138V490.655H631.09Z" fill="#ED8D94"/>
<path fill-rule="evenodd" clip-rule="evenodd" d="M523.627 164.366H417.01V185.174H523.627V164.366Z" fill="#F6F3FF"/>
<path fill-rule="evenodd" clip-rule="evenodd" d="M519.021 287.838H426.387V184.421H519.021V287.838Z" fill="#F2AAAF"/>
<path fill-rule="evenodd" clip-rule="evenodd" d="M519.022 184.421V283.478L498.1 282.269L497.373 282.573V184.421H519.022Z" fill="#ED8D94"/>
<path fill-rule="evenodd" clip-rule="evenodd" d="M508.025 42.5796C494.577 84.3928 460.307 102.657 438.361 103.351V165.219H508.025V42.5796Z" fill="#ADADED"/>
<path fill-rule="evenodd" clip-rule="evenodd" d="M473.364 129.113C477.659 129.113 481.142 132.594 481.142 136.887C481.142 141.181 477.659 144.662 473.364 144.662C469.068 144.662 465.586 141.181 465.586 136.887C465.586 132.594 469.068 129.113 473.364 129.113Z" fill="white"/>
<path fill-rule="evenodd" clip-rule="evenodd" d="M626.642 163.759H525.973V183.509H626.642V163.759Z" fill="#E97179"/>
<path fill-rule="evenodd" clip-rule="evenodd" d="M574.219 66.4521V163.732H536.129V92.881C536.129 85.8725 538.911 79.1547 543.874 74.1939C548.83 69.2397 555.557 66.4521 562.568 66.4521H574.225H574.219Z" fill="#F6F3FF"/>
<path fill-rule="evenodd" clip-rule="evenodd" d="M574.219 66.4521H587.845C594.856 66.4521 601.577 69.2397 606.54 74.1939C611.496 79.148 614.284 85.8725 614.284 92.881V163.732H574.225V66.4521H574.219Z" fill="#ADADED"/>
<path fill-rule="evenodd" clip-rule="evenodd" d="M621.488 286.18H528.854V182.756H621.488V286.18Z" fill="#F2AAAF"/>
<path fill-rule="evenodd" clip-rule="evenodd" d="M621.487 182.756V281.82L600.566 280.611L599.832 280.908V182.756H621.487Z" fill="#ED8D94"/>
<path fill-rule="evenodd" clip-rule="evenodd" d="M551.249 284.68H528.854V182.756H551.249V284.68Z" fill="#ED8D94"/>
<path fill-rule="evenodd" clip-rule="evenodd" d="M734.073 284.085H407.045V577.491H734.073V284.085Z" fill="#F6F3FF"/>
<path fill-rule="evenodd" clip-rule="evenodd" d="M657.219 383.195C657.219 333.205 616.678 292.686 566.667 292.686C542.653 292.686 519.623 302.224 502.64 319.201C485.657 336.177 476.121 359.197 476.121 383.202V578.013H657.219V383.202V383.195Z" fill="#ADADED"/>
<path fill-rule="evenodd" clip-rule="evenodd" d="M554.58 484.439L534.914 533.908C540.439 538.426 549.941 539.364 554.032 535.447L554.58 484.446V484.439Z" fill="#F7CCCF"/>
<path fill-rule="evenodd" clip-rule="evenodd" d="M545.059 430.095C545.059 425.636 543.288 421.356 540.129 418.198C536.97 415.041 532.695 413.271 528.228 413.271C523.76 413.271 519.478 415.041 516.326 418.198C513.167 421.356 511.396 425.636 511.396 430.095V470.911C511.396 475.376 513.167 479.65 516.326 482.808C519.485 485.965 523.767 487.735 528.228 487.735C532.695 487.735 536.97 485.965 540.129 482.808C543.288 479.65 545.059 475.376 545.059 470.911V430.095Z" fill="#F6F3FF"/>
<path fill-rule="evenodd" clip-rule="evenodd" d="M533.461 442.758C533.461 440.624 532.615 438.583 531.108 437.077C529.601 435.571 527.553 434.726 525.425 434.726C523.291 434.726 521.249 435.571 519.735 437.077C518.229 438.583 517.383 440.631 517.383 442.758V462.264C517.383 464.398 518.229 466.439 519.735 467.945C521.242 469.451 523.291 470.297 525.425 470.297C527.56 470.297 529.601 469.451 531.108 467.945C532.615 466.439 533.461 464.391 533.461 462.264V442.758Z" fill="#515192"/>
<path fill-rule="evenodd" clip-rule="evenodd" d="M527.586 442.969C527.586 440.875 525.887 439.171 523.786 439.171C521.691 439.171 519.986 440.869 519.986 442.969V452.184C519.986 454.278 521.685 455.982 523.786 455.982C525.881 455.982 527.586 454.285 527.586 452.184V442.969Z" fill="white"/>
<path fill-rule="evenodd" clip-rule="evenodd" d="M612.038 428.364C612.038 423.959 610.287 419.731 607.168 416.62C604.049 413.502 599.826 411.751 595.418 411.751C591.011 411.751 586.782 413.502 583.669 416.62C580.55 419.738 578.799 423.959 578.799 428.364V473.395C578.799 477.8 580.55 482.028 583.669 485.139C586.788 488.257 591.011 490.008 595.418 490.008C599.826 490.008 604.055 488.257 607.168 485.139C610.287 482.021 612.038 477.8 612.038 473.395V428.364Z" fill="#F6F3FF"/>
<path fill-rule="evenodd" clip-rule="evenodd" d="M600.587 442.229C600.587 440.122 599.748 438.101 598.261 436.615C596.774 435.128 594.752 434.29 592.644 434.29C590.536 434.29 588.521 435.128 587.027 436.615C585.54 438.101 584.701 440.122 584.701 442.229V463.75C584.701 465.858 585.54 467.879 587.027 469.365C588.514 470.851 590.536 471.69 592.644 471.69C594.752 471.69 596.774 470.851 598.261 469.365C599.748 467.879 600.587 465.858 600.587 463.75V442.229Z" fill="#515192"/>
<path fill-rule="evenodd" clip-rule="evenodd" d="M594.792 442.718C594.792 440.644 593.114 438.966 591.039 438.966C588.97 438.966 587.285 440.644 587.285 442.718V452.884C587.285 454.952 588.964 456.636 591.039 456.636C593.114 456.636 594.792 454.958 594.792 452.884V442.718Z" fill="white"/>
<path fill-rule="evenodd" clip-rule="evenodd" d="M25.3074 484.736C26.7546 486.903 26.7679 486.936 27.2767 489.486L26.7679 492.055C25.3207 494.222 25.2942 494.248 23.1267 495.695L20.609 496.203C20.3579 496.203 20.1068 496.203 19.8557 496.203C2.73375 496.038 -12.7625 481.499 -12.9542 463.446C-13.1392 419.737 -13.1921 376.035 -13.1128 332.326C-12.9145 308.302 7.70314 286.193 33.2571 286.008C64.6528 285.968 96.0485 286.424 127.444 286.193C138.744 286.041 148.994 276.245 149.073 264.427C149.112 199.68 148.339 134.925 148.604 70.1775C148.762 60.5267 158.906 52.4283 169.142 55.2951C176.438 57.3428 181.975 64.3646 182.134 72.1723C182.358 99.5722 182.068 126.979 182.292 154.385C182.464 162.556 189.68 169.783 198.119 169.69L200.683 170.159L202.89 171.58C203.386 172.3 204.033 172.934 204.384 173.74C205.091 175.378 205.124 177.227 204.47 178.885C204.146 179.698 203.525 180.352 203.049 181.092L200.888 182.584L198.324 183.139C182.973 183.39 169.182 170.404 168.851 154.59C168.627 127.15 169.591 99.6911 168.686 72.2714C168.58 69.8802 166.215 67.6277 163.822 68.143C162.844 68.3543 162.091 69.2659 162.045 70.2699C160.175 134.985 162.554 199.752 162.514 264.493C162.388 282.778 146.449 299.509 127.358 299.648C95.9427 299.688 64.5206 299.239 33.1052 299.463C16.1088 299.694 0.586091 314.319 0.32837 332.2C-0.0284739 375.962 0.0177774 419.724 0.486961 463.479C0.658774 473.738 9.79794 482.933 20.4967 482.768L23.1201 483.276C23.847 483.765 24.5739 484.247 25.3008 484.736H25.3074Z" fill="#F6F3FF"/>
<path fill-rule="evenodd" clip-rule="evenodd" d="M126.731 143.4C126.731 133.485 122.792 123.98 115.781 116.965C108.77 109.956 99.2538 106.013 89.3349 106.013H67.3361C57.4172 106.013 47.908 109.95 40.89 116.965C33.8787 123.973 29.9336 133.485 29.9336 143.4V215.262C29.9336 233.051 44.3593 247.477 62.1619 247.477H94.5025C112.298 247.477 126.724 233.058 126.724 215.262V143.4H126.731Z" fill="#F6F3FF"/>
<path fill-rule="evenodd" clip-rule="evenodd" d="M79.2039 204.772C85.4024 204.772 90.4313 209.799 90.4313 215.995C90.4313 222.191 85.4024 227.218 79.2039 227.218C73.0054 227.218 67.9766 222.191 67.9766 215.995C67.9766 209.799 73.0054 204.772 79.2039 204.772Z" fill="#ADADED"/>
<path fill-rule="evenodd" clip-rule="evenodd" d="M121.887 591.482H136.888C143.43 591.482 149.708 588.886 154.327 584.262C158.953 579.638 161.55 573.37 161.55 566.83V547.918H194.737V566.83C194.737 573.37 197.334 579.638 201.959 584.262C206.585 588.886 212.856 591.482 219.398 591.482H234.399V603.412H121.881V591.482H121.887Z" fill="#F6F3FF"/>
<path fill-rule="evenodd" clip-rule="evenodd" d="M234.234 598.854H122.244V603.802H234.234V598.854Z" fill="#BEE1E5"/>
<path fill-rule="evenodd" clip-rule="evenodd" d="M334.307 338.74C334.307 324.802 323.001 313.5 309.057 313.5H44.1602C30.2168 313.5 18.9102 324.802 18.9102 338.74V528.425C18.9102 542.363 30.2168 553.665 44.1602 553.665H309.057C323.001 553.665 334.307 542.363 334.307 528.425V338.74Z" fill="#F6F3FF"/>
<path fill-rule="evenodd" clip-rule="evenodd" d="M323.694 341.442C323.694 333.356 317.132 326.797 309.044 326.797H46.0235C37.935 326.797 31.373 333.356 31.373 341.442V476.625C31.373 484.71 37.935 491.269 46.0235 491.269H309.044C317.132 491.269 323.694 484.71 323.694 476.625V341.442Z" fill="#ADADED"/>
<path fill-rule="evenodd" clip-rule="evenodd" d="M279.406 326.797H309.044C310.003 326.797 310.941 326.89 311.846 327.068L262.404 491.269H229.878L279.4 326.797H279.406ZM270.003 326.797L220.481 491.269H202.018L251.54 326.797H270.003Z" fill="#DEDEF8"/>
<path fill-rule="evenodd" clip-rule="evenodd" d="M333.165 31.9084C333.165 29.6993 331.374 27.9084 329.165 27.9084H202.721C200.512 27.9084 198.721 29.6993 198.721 31.9084V278.223C198.721 280.432 200.512 282.223 202.721 282.223H329.165C331.374 282.223 333.165 280.432 333.165 278.223V31.9084Z" fill="#ADADED"/>
<path fill-rule="evenodd" clip-rule="evenodd" d="M243.676 45.1424C243.676 44.0194 243.227 42.9427 242.434 42.1501C241.641 41.3574 240.564 40.9082 239.434 40.9082H213.787C212.664 40.9082 211.587 41.3574 210.787 42.1501C209.994 42.9427 209.545 44.0194 209.545 45.1424V70.7786C209.545 71.9015 209.994 72.9782 210.787 73.7709C211.58 74.5636 212.664 75.0127 213.787 75.0127H239.434C240.557 75.0127 241.634 74.5636 242.434 73.7709C243.234 72.9782 243.676 71.9015 243.676 70.7786V45.1424Z" fill="#F6F3FF"/>
<path fill-rule="evenodd" clip-rule="evenodd" d="M243.676 83.4612C243.676 82.3383 243.227 81.2616 242.434 80.4623C241.641 79.6696 240.564 79.2205 239.434 79.2205H213.787C212.664 79.2205 211.587 79.6696 210.787 80.4623C209.994 81.255 209.545 82.3317 209.545 83.4612V109.097C209.545 110.22 209.994 111.297 210.787 112.096C211.58 112.889 212.664 113.338 213.787 113.338H239.434C240.557 113.338 241.634 112.896 242.434 112.096C243.234 111.297 243.676 110.22 243.676 109.097V83.4612Z" fill="#F6F3FF"/>
<path fill-rule="evenodd" clip-rule="evenodd" d="M243.676 121.78C243.676 120.657 243.227 119.58 242.434 118.781C241.641 117.988 240.564 117.539 239.434 117.539H213.787C212.664 117.539 211.587 117.988 210.787 118.781C209.994 119.574 209.545 120.657 209.545 121.78V147.416C209.545 148.539 209.994 149.616 210.787 150.415C211.58 151.208 212.664 151.657 213.787 151.657H239.434C240.557 151.657 241.634 151.214 242.434 150.415C243.227 149.623 243.676 148.539 243.676 147.416V121.78Z" fill="#F6F3FF"/>
<path fill-rule="evenodd" clip-rule="evenodd" d="M243.676 160.106C243.676 158.983 243.227 157.906 242.434 157.107C241.641 156.314 240.564 155.865 239.434 155.865H213.787C212.664 155.865 211.587 156.314 210.787 157.107C209.994 157.899 209.545 158.983 209.545 160.106V185.742C209.545 186.865 209.994 187.941 210.787 188.741C211.58 189.533 212.664 189.982 213.787 189.982H239.434C240.557 189.982 241.634 189.533 242.434 188.741C243.227 187.948 243.676 186.865 243.676 185.742V160.106Z" fill="#F6F3FF"/>
<path fill-rule="evenodd" clip-rule="evenodd" d="M243.676 198.425C243.676 197.302 243.227 196.225 242.434 195.426C241.641 194.633 240.564 194.184 239.434 194.184H213.787C212.664 194.184 211.587 194.626 210.787 195.426C209.994 196.218 209.545 197.302 209.545 198.425V224.061C209.545 225.184 209.994 226.26 210.787 227.06C211.58 227.852 212.664 228.302 213.787 228.302H239.434C240.557 228.302 241.634 227.852 242.434 227.06C243.227 226.267 243.676 225.19 243.676 224.061V198.425Z" fill="#F6F3FF"/>
<path fill-rule="evenodd" clip-rule="evenodd" d="M243.676 236.743C243.676 235.621 243.227 234.544 242.434 233.745C241.641 232.952 240.564 232.503 239.434 232.503H213.787C212.664 232.503 211.587 232.952 210.787 233.745C209.988 234.537 209.545 235.614 209.545 236.743V262.38C209.545 263.503 209.994 264.579 210.787 265.379C211.58 266.171 212.664 266.62 213.787 266.62H239.434C240.557 266.62 241.634 266.171 242.434 265.379C243.227 264.586 243.676 263.509 243.676 262.38V236.743Z" fill="#F6F3FF"/>
<path fill-rule="evenodd" clip-rule="evenodd" d="M284.397 45.5518C284.397 44.4289 283.948 43.3522 283.155 42.5529C282.362 41.7602 281.278 41.311 280.155 41.311H254.508C253.385 41.311 252.308 41.7602 251.508 42.5529C250.715 43.3455 250.266 44.4223 250.266 45.5518V71.188C250.266 72.311 250.715 73.3877 251.508 74.1869C252.301 74.9796 253.385 75.4288 254.508 75.4288H280.155C281.278 75.4288 282.355 74.9796 283.155 74.1869C283.948 73.3943 284.397 72.311 284.397 71.188V45.5518Z" fill="#F6F3FF"/>
<path fill-rule="evenodd" clip-rule="evenodd" d="M284.397 83.8709C284.397 82.748 283.948 81.6712 283.155 80.872C282.362 80.0793 281.278 79.6301 280.155 79.6301H254.508C253.385 79.6301 252.308 80.0793 251.508 80.872C250.715 81.6646 250.266 82.7413 250.266 83.8709V109.507C250.266 110.63 250.715 111.707 251.508 112.506C252.301 113.299 253.385 113.748 254.508 113.748H280.155C281.278 113.748 282.355 113.305 283.155 112.506C283.948 111.713 284.397 110.63 284.397 109.507V83.8709Z" fill="#F6F3FF"/>
<path fill-rule="evenodd" clip-rule="evenodd" d="M284.397 122.19C284.397 121.067 283.948 119.99 283.155 119.191C282.362 118.398 281.278 117.949 280.155 117.949H254.508C253.385 117.949 252.308 118.398 251.508 119.191C250.715 119.983 250.266 121.067 250.266 122.19V147.826C250.266 148.949 250.715 150.026 251.508 150.825C252.301 151.618 253.385 152.067 254.508 152.067H280.155C281.278 152.067 282.355 151.618 283.155 150.825C283.948 150.032 284.397 148.949 284.397 147.826V122.19Z" fill="#F6F3FF"/>
<path fill-rule="evenodd" clip-rule="evenodd" d="M284.397 160.515C284.397 159.392 283.948 158.316 283.155 157.516C282.362 156.724 281.278 156.274 280.155 156.274H254.508C253.385 156.274 252.308 156.717 251.508 157.516C250.715 158.309 250.266 159.392 250.266 160.515V186.151C250.266 187.274 250.715 188.351 251.508 189.15C252.301 189.943 253.385 190.392 254.508 190.392H280.155C281.278 190.392 282.355 189.943 283.155 189.15C283.948 188.358 284.397 187.274 284.397 186.151V160.515Z" fill="#F6F3FF"/>
<path fill-rule="evenodd" clip-rule="evenodd" d="M284.397 198.834C284.397 197.711 283.948 196.634 283.155 195.835C282.362 195.042 281.278 194.593 280.155 194.593H254.508C253.385 194.593 252.308 195.036 251.508 195.835C250.715 196.628 250.266 197.711 250.266 198.834V224.47C250.266 225.593 250.715 226.67 251.508 227.469C252.301 228.262 253.385 228.711 254.508 228.711H280.155C281.278 228.711 282.355 228.262 283.155 227.469C283.948 226.676 284.397 225.6 284.397 224.47V198.834Z" fill="#F6F3FF"/>
<path fill-rule="evenodd" clip-rule="evenodd" d="M284.397 237.153C284.397 236.03 283.948 234.953 283.155 234.154C282.362 233.361 281.278 232.912 280.155 232.912H254.508C253.385 232.912 252.308 233.361 251.508 234.154C250.715 234.947 250.266 236.023 250.266 237.153V262.789C250.266 263.912 250.715 264.989 251.508 265.781C252.301 266.574 253.385 267.023 254.508 267.023H280.155C281.278 267.023 282.355 266.574 283.155 265.781C283.948 264.989 284.397 263.912 284.397 262.789V237.153Z" fill="#F6F3FF"/>
<path fill-rule="evenodd" clip-rule="evenodd" d="M325.124 45.9615C325.124 44.8385 324.674 43.7618 323.881 42.9626C323.088 42.1633 322.011 41.7207 320.881 41.7207H295.235C294.111 41.7207 293.034 42.1699 292.235 42.9626C291.435 43.7552 290.992 44.8319 290.992 45.9615V71.5977C290.992 72.7206 291.442 73.7973 292.235 74.5966C293.028 75.3959 294.105 75.8384 295.235 75.8384H320.881C322.005 75.8384 323.082 75.3959 323.881 74.5966C324.681 73.7973 325.124 72.7206 325.124 71.5977V45.9615Z" fill="#F6F3FF"/>
<path fill-rule="evenodd" clip-rule="evenodd" d="M325.124 84.2803C325.124 83.1574 324.674 82.0807 323.881 81.2814C323.088 80.4887 322.011 80.0396 320.881 80.0396H295.235C294.111 80.0396 293.034 80.4887 292.235 81.2814C291.442 82.0741 290.992 83.1574 290.992 84.2803V109.917C290.992 111.039 291.442 112.116 292.235 112.915C293.028 113.708 294.105 114.157 295.235 114.157H320.881C322.005 114.157 323.082 113.715 323.881 112.915C324.674 112.123 325.124 111.039 325.124 109.917V84.2803Z" fill="#F6F3FF"/>
<path fill-rule="evenodd" clip-rule="evenodd" d="M325.124 141.346V186.561C325.124 187.684 324.674 188.76 323.881 189.56C323.088 190.359 322.011 190.802 320.881 190.802H295.235C294.111 190.802 293.034 190.352 292.235 189.56C291.435 188.767 290.992 187.69 290.992 186.561V122.606C290.992 121.483 291.442 120.406 292.235 119.607C293.028 118.814 294.105 118.365 295.235 118.365H320.881C322.005 118.365 323.082 118.808 323.881 119.607C324.674 120.4 325.124 121.483 325.124 122.606V141.346Z" fill="#F6F3FF"/>
<path fill-rule="evenodd" clip-rule="evenodd" d="M325.124 199.244C325.124 198.121 324.674 197.044 323.881 196.251C323.088 195.459 322.011 195.01 320.881 195.01H295.235C294.111 195.01 293.034 195.459 292.235 196.251C291.442 197.044 290.992 198.121 290.992 199.244V224.88C290.992 226.003 291.442 227.08 292.235 227.872C293.028 228.665 294.105 229.114 295.235 229.114H320.881C322.005 229.114 323.082 228.665 323.881 227.872C324.674 227.08 325.124 226.003 325.124 224.88V199.244Z" fill="#F6F3FF"/>
<path fill-rule="evenodd" clip-rule="evenodd" d="M325.124 237.563C325.124 236.44 324.674 235.363 323.881 234.564C323.088 233.764 322.011 233.322 320.881 233.322H295.235C294.111 233.322 293.034 233.771 292.235 234.564C291.442 235.356 290.992 236.433 290.992 237.563V263.199C290.992 264.322 291.442 265.398 292.235 266.198C293.028 266.99 294.105 267.44 295.235 267.44H320.881C322.005 267.44 323.082 266.997 323.881 266.198C324.674 265.405 325.124 264.322 325.124 263.199V237.563Z" fill="#F6F3FF"/>
<g style="mix-blend-mode:multiply" opacity="0.8">
<rect x="-295" width="1542" height="960" fill="#ADADED"/>
</g>
</g>
<defs>
<clipPath id="clip0_1425_45402">
<rect width="953" height="960" fill="white"/>
</clipPath>
</defs>
</svg>
