<svg width="65" height="64" viewBox="0 0 65 64" fill="none" xmlns="http://www.w3.org/2000/svg">
<rect x="0.5" width="64" height="64" rx="32" fill="#D8D8FC"/>
<path fill-rule="evenodd" clip-rule="evenodd" d="M32.4993 21.3334C26.6083 21.3334 21.8327 26.109 21.8327 32.0001C21.8327 34.2396 22.5229 36.318 23.7022 38.0341C26.3582 36.7313 29.3449 36.0001 32.4994 36.0001C35.6538 36.0001 38.6405 36.7313 41.2965 38.0341C42.4758 36.318 43.166 34.2396 43.166 32.0001C43.166 26.109 38.3904 21.3334 32.4993 21.3334ZM42.705 40.5809C44.6568 38.2619 45.8327 35.2683 45.8327 32.0001C45.8327 24.6363 39.8631 18.6667 32.4993 18.6667C25.1356 18.6667 19.166 24.6363 19.166 32.0001C19.166 35.2683 20.3419 38.262 22.2937 40.5809C22.3043 40.5939 22.315 40.6066 22.326 40.6191C24.7717 43.503 28.4218 45.3334 32.4993 45.3334C36.5769 45.3334 40.2269 43.5031 42.6727 40.6192C42.6837 40.6066 42.6944 40.5939 42.705 40.5809ZM39.4309 40.1079C37.3092 39.1811 34.9656 38.6667 32.4994 38.6667C30.0331 38.6667 27.6895 39.1811 25.5678 40.1079C27.4322 41.7032 29.8532 42.6667 32.4993 42.6667C35.1455 42.6667 37.5665 41.7032 39.4309 40.1079ZM32.4993 26.6667C31.0266 26.6667 29.8327 27.8607 29.8327 29.3334C29.8327 30.8062 31.0266 32.0001 32.4993 32.0001C33.9721 32.0001 35.166 30.8062 35.166 29.3334C35.166 27.8607 33.9721 26.6667 32.4993 26.6667ZM27.166 29.3334C27.166 26.3879 29.5538 24.0001 32.4993 24.0001C35.4449 24.0001 37.8327 26.3879 37.8327 29.3334C37.8327 32.2789 35.4449 34.6667 32.4993 34.6667C29.5538 34.6667 27.166 32.2789 27.166 29.3334Z" fill="#5555AA"/>
</svg>
