<svg width="28" height="27" viewBox="0 0 28 27" fill="none" xmlns="http://www.w3.org/2000/svg">
<path fill-rule="evenodd" clip-rule="evenodd" d="M13.9997 2.83329C19.8907 2.83329 24.6663 7.60892 24.6663 13.5C24.6663 19.391 19.8907 24.1666 13.9997 24.1666C8.10864 24.1666 3.33301 19.391 3.33301 13.5C3.33301 7.60892 8.10864 2.83329 13.9997 2.83329ZM27.333 13.5C27.333 6.13616 21.3635 0.166626 13.9997 0.166626C6.63588 0.166626 0.666344 6.13616 0.666344 13.5C0.666344 20.8638 6.63588 26.8333 13.9997 26.8333C21.3635 26.8333 27.333 20.8638 27.333 13.5ZM19.333 10.8333C19.333 10.0969 18.7361 9.49996 17.9997 9.49996H17.9863C17.25 9.49996 16.653 10.0969 16.653 10.8333C16.653 11.5697 17.25 12.1666 17.9863 12.1666H17.9997C18.7361 12.1666 19.333 11.5697 19.333 10.8333ZM11.333 10.8333C11.333 10.0969 10.7361 9.49996 9.99968 9.49996H9.98634C9.24996 9.49996 8.65301 10.0969 8.65301 10.8333C8.65301 11.5697 9.24996 12.1666 9.98634 12.1666H9.99968C10.7361 12.1666 11.333 11.5697 11.333 10.8333ZM11.1712 20.0049C12.7333 18.4428 15.2659 18.4428 16.828 20.0049C17.3487 20.5256 18.1929 20.5256 18.7136 20.0049C19.2343 19.4842 19.2343 18.64 18.7136 18.1193C16.1101 15.5158 11.889 15.5158 9.28555 18.1193C8.76485 18.64 8.76485 19.4842 9.28555 20.0049C9.80625 20.5256 10.6505 20.5256 11.1712 20.0049Z" fill="#92929B"/>
</svg>
