<svg width="65" height="64" viewBox="0 0 65 64" fill="none" xmlns="http://www.w3.org/2000/svg">
<rect x="0.664062" width="64" height="64" rx="32" fill="#C7F8E1"/>
<rect width="40" height="40" transform="translate(12.6641 12)" fill="#C7F8E1"/>
<path fill-rule="evenodd" clip-rule="evenodd" d="M27.7519 21.2586C28.3504 19.7819 29.725 18.666 31.4736 18.666H33.8545C35.6031 18.666 36.9777 19.7819 37.5762 21.2586H38.6164C40.9827 21.2586 42.6641 23.302 42.6641 25.5179V41.0734C42.6641 43.2893 40.9827 45.3327 38.6164 45.3327H26.7117C24.3455 45.3327 22.6641 43.2893 22.6641 41.0734V25.5179C22.6641 23.302 24.3455 21.2586 26.7117 21.2586H27.7519ZM27.7519 24.5919H26.7117C26.448 24.5919 25.9974 24.87 25.9974 25.5179V41.0734C25.9974 41.7213 26.448 41.9993 26.7117 41.9993H38.6164C38.8802 41.9993 39.3307 41.7213 39.3307 41.0734V25.5179C39.3307 24.87 38.8802 24.5919 38.6164 24.5919H37.5762C36.9777 26.0687 35.6031 27.1845 33.8545 27.1845H31.4736C29.725 27.1845 28.3504 26.0687 27.7519 24.5919ZM31.4736 21.9993C31.2099 21.9993 30.7593 22.2774 30.7593 22.9253C30.7593 23.5731 31.2099 23.8512 31.4736 23.8512H33.8545C34.1183 23.8512 34.5688 23.5731 34.5688 22.9253C34.5688 22.2774 34.1183 21.9993 33.8545 21.9993H31.4736ZM37.3628 30.7718C38.0408 31.3944 38.0857 32.4487 37.463 33.1267L32.7011 38.3119C32.3855 38.6556 31.9402 38.8512 31.4736 38.8512C31.0069 38.8512 30.5617 38.6556 30.246 38.3119L27.8651 35.7193C27.2425 35.0413 27.2873 33.987 27.9653 33.3644C28.6432 32.7418 29.6976 32.7866 30.3202 33.4646L31.4736 34.7205L35.0079 30.872C35.6306 30.1941 36.6849 30.1492 37.3628 30.7718Z" fill="#007212"/>
</svg>
