<svg width="65" height="64" viewBox="0 0 65 64" fill="none" xmlns="http://www.w3.org/2000/svg">
<rect x="0.332031" width="64" height="64" rx="32" fill="#D8D8FC"/>
<path fill-rule="evenodd" clip-rule="evenodd" d="M33.6667 26.3327C32.9303 26.3327 32.3333 25.7357 32.3333 24.9993C32.3333 24.263 32.9303 23.666 33.6667 23.666H44.3333C45.0697 23.666 45.6667 24.263 45.6667 24.9993V35.666C45.6667 36.4024 45.0697 36.9993 44.3333 36.9993C43.597 36.9993 43 36.4024 43 35.666V28.2183L34.6095 36.6088C34.0888 37.1295 33.2446 37.1295 32.7239 36.6088L28.3333 32.2183L21.2761 39.2755C20.7554 39.7962 19.9112 39.7962 19.3905 39.2755C18.8698 38.7548 18.8698 37.9106 19.3905 37.3899L27.3905 29.3899C27.9112 28.8692 28.7554 28.8692 29.2761 29.3899L33.6667 33.7804L41.1144 26.3327H33.6667Z" fill="#515192"/>
</svg>
