<svg width="64" height="64" viewBox="0 0 64 64" fill="none" xmlns="http://www.w3.org/2000/svg">
<rect width="64" height="64" rx="32" fill="#FFD1D5"/>
<path fill-rule="evenodd" clip-rule="evenodd" d="M26.8122 18.666C27.7327 18.666 28.4789 19.4122 28.4789 20.3327V21.2586H35.5159V20.3327C35.5159 19.4122 36.2621 18.666 37.1826 18.666C38.1031 18.666 38.8492 19.4122 38.8492 20.3327V21.2586H41.0715C43.4238 21.2586 45.3307 23.1655 45.3307 25.5179V41.0734C45.3307 43.4257 43.4238 45.3327 41.0715 45.3327H22.9233C20.571 45.3327 18.6641 43.4257 18.6641 41.0734V25.5179C18.6641 23.1655 20.571 21.2586 22.9233 21.2586H25.1455V20.3327C25.1455 19.4122 25.8917 18.666 26.8122 18.666ZM25.1455 24.5919H22.9233C22.4119 24.5919 21.9974 25.0065 21.9974 25.5179V41.0734C21.9974 41.5848 22.4119 41.9993 22.9233 41.9993H41.0715C41.5828 41.9993 41.9974 41.5848 41.9974 41.0734V25.5179C41.9974 25.0065 41.5828 24.5919 41.0715 24.5919H38.8492V25.5179C38.8492 26.4383 38.1031 27.1845 37.1826 27.1845C36.2621 27.1845 35.5159 26.4383 35.5159 25.5179V24.5919H28.4789V25.5179C28.4789 26.4383 27.7327 27.1845 26.8122 27.1845C25.8917 27.1845 25.1455 26.4383 25.1455 25.5179V24.5919ZM23.8492 30.7031C23.8492 29.7826 24.5954 29.0364 25.5159 29.0364H38.4789C39.3994 29.0364 40.1455 29.7826 40.1455 30.7031C40.1455 31.6235 39.3994 32.3697 38.4789 32.3697H25.5159C24.5954 32.3697 23.8492 31.6235 23.8492 30.7031Z" fill="#C71B2C"/>
</svg>
