<svg width="24" height="24" viewBox="0 0 24 24" fill="none" xmlns="http://www.w3.org/2000/svg">
<path fill-rule="evenodd" clip-rule="evenodd" d="M8.4 5.6C7.95817 5.6 7.6 5.95817 7.6 6.4V17.6C7.6 18.0418 7.95817 18.4 8.4 18.4H16.4C16.8418 18.4 17.2 18.0418 17.2 17.6L17.2 9.93137L12.8686 5.6H8.4ZM6 6.4C6 5.07452 7.07452 4 8.4 4H12.8686C13.293 4 13.6999 4.16857 14 4.46863L18.3314 8.8C18.6314 9.10006 18.8 9.50703 18.8 9.93137V17.6C18.8 18.9255 17.7255 20 16.4 20H8.4C7.07452 20 6 18.9255 6 17.6V6.4ZM9.2 12C9.2 11.5582 9.55817 11.2 10 11.2H14.8C15.2418 11.2 15.6 11.5582 15.6 12C15.6 12.4418 15.2418 12.8 14.8 12.8H10C9.55817 12.8 9.2 12.4418 9.2 12ZM9.2 15.2C9.2 14.7582 9.55817 14.4 10 14.4H14.8C15.2418 14.4 15.6 14.7582 15.6 15.2C15.6 15.6418 15.2418 16 14.8 16H10C9.55817 16 9.2 15.6418 9.2 15.2Z" fill="#111827"/>
</svg>
