<svg width="24" height="24" viewBox="0 0 24 24" fill="none" xmlns="http://www.w3.org/2000/svg">
<path fill-rule="evenodd" clip-rule="evenodd" d="M4 5.88235C4 4.84276 4.84276 4 5.88235 4H18.1176C19.1572 4 20 4.84276 20 5.88235V7.68858C20 8.18781 19.8017 8.6666 19.4487 9.01961L14.5098 13.9585V15.9216C14.5098 16.1712 14.4106 16.4106 14.2341 16.5871L11.0969 19.7243C10.8277 19.9935 10.4229 20.074 10.0712 19.9284C9.71951 19.7827 9.4902 19.4395 9.4902 19.0588V13.9585L4.55133 9.01961C4.19832 8.6666 4 8.18781 4 7.68858V5.88235ZM18.1176 5.88235L5.88235 5.88235V7.68858L10.8212 12.6274C11.1742 12.9805 11.3725 13.4592 11.3725 13.9585V16.7866L12.6274 15.5317V13.9585C12.6274 13.4592 12.8258 12.9805 13.1788 12.6275L18.1176 7.68858V5.88235Z" fill="#515192"/>
</svg>
