<svg width="16" height="17" viewBox="0 0 16 17" fill="none" xmlns="http://www.w3.org/2000/svg">
<path fill-rule="evenodd" clip-rule="evenodd" d="M0.888889 0.5C1.37981 0.5 1.77778 0.897969 1.77778 1.38889V3.47154C3.2439 1.65952 5.48594 0.5 8 0.5C12.0803 0.5 15.4459 3.5539 15.9382 7.50112C15.9989 7.98827 15.6532 8.43242 15.1661 8.49317C14.6789 8.55392 14.2348 8.20825 14.174 7.7211C13.7914 4.65266 11.1724 2.27778 8 2.27778C5.8865 2.27778 4.01776 3.3317 2.89282 4.94444H5.33333C5.82425 4.94444 6.22222 5.34241 6.22222 5.83333C6.22222 6.32425 5.82425 6.72222 5.33333 6.72222H0.888889C0.397969 6.72222 0 6.32425 0 5.83333V1.38889C0 0.897969 0.397969 0.5 0.888889 0.5ZM0.833915 8.50683C1.32106 8.44609 1.76522 8.79175 1.82596 9.2789C2.20859 12.3473 4.82764 14.7222 8 14.7222C10.1135 14.7222 11.9822 13.6683 13.1072 12.0556H10.6667C10.1757 12.0556 9.77778 11.6576 9.77778 11.1667C9.77778 10.6757 10.1757 10.2778 10.6667 10.2778H15.1111C15.602 10.2778 16 10.6757 16 11.1667V15.6111C16 16.102 15.602 16.5 15.1111 16.5C14.6202 16.5 14.2222 16.102 14.2222 15.6111V13.5285C12.7561 15.3405 10.5141 16.5 8 16.5C3.91971 16.5 0.55406 13.4461 0.0618482 9.49888C0.00110186 9.01173 0.346768 8.56758 0.833915 8.50683Z" fill="#515192"/>
</svg>
