<svg width="20" height="20" viewBox="0 0 20 20" fill="none" xmlns="http://www.w3.org/2000/svg">
<path fill-rule="evenodd" clip-rule="evenodd" d="M8.69297 4.902C6.59934 4.902 4.90212 6.59922 4.90212 8.69285C4.90212 10.7865 6.59934 12.4837 8.69297 12.4837C10.7866 12.4837 12.4838 10.7865 12.4838 8.69285C12.4838 6.59922 10.7866 4.902 8.69297 4.902ZM3.3335 8.69285C3.3335 5.73289 5.73302 3.33337 8.69297 3.33337C11.6529 3.33337 14.0524 5.73289 14.0524 8.69285C14.0524 9.88992 13.66 10.9953 12.9967 11.8874L16.4371 15.3278C16.7434 15.6341 16.7434 16.1307 16.4371 16.437C16.1308 16.7433 15.6342 16.7433 15.3279 16.437L11.8875 12.9966C10.9954 13.6599 9.89004 14.0523 8.69297 14.0523C5.73302 14.0523 3.3335 11.6528 3.3335 8.69285Z" fill="#515192"/>
</svg>
