<svg width="25" height="25" viewBox="0 0 25 25" fill="none" xmlns="http://www.w3.org/2000/svg">
<path fill-rule="evenodd" clip-rule="evenodd" d="M15.2273 5.86572C15.4728 5.86572 15.6718 6.06471 15.6718 6.31017V18.7546C15.6718 19.0001 15.4728 19.1991 15.2273 19.1991C14.9819 19.1991 14.7829 19.0001 14.7829 18.7546V6.31017C14.7829 6.06471 14.9819 5.86572 15.2273 5.86572Z" fill="#646470"/>
<path fill-rule="evenodd" clip-rule="evenodd" d="M10.4686 14.8804C10.6422 14.7127 10.9236 14.7127 11.0971 14.8804L15.2273 18.8728L19.3575 14.8804C19.5311 14.7127 19.8125 14.7127 19.986 14.8804C20.1596 15.0482 20.1596 15.3202 19.986 15.488L15.2273 20.0879L10.4686 15.488C10.295 15.3202 10.295 15.0482 10.4686 14.8804Z" fill="#646470"/>
<path d="M5.23084 12.9768H4.11621L6.62073 6.75461H7.83391L10.3384 12.9768H9.2238L7.25621 7.88482H7.20184L5.23084 12.9768ZM5.41775 10.5402H9.0335V11.3301H5.41775V10.5402Z" fill="#646470"/>
<path d="M5.03226 20.0879V19.4621L8.28186 14.6739H5.0051V13.8657H9.42239V14.4916L6.17278 19.2798H9.44954V20.0879H5.03226Z" fill="#646470"/>
</svg>
