<svg width="25" height="26" viewBox="0 0 25 26" fill="none" xmlns="http://www.w3.org/2000/svg">
<path fill-rule="evenodd" clip-rule="evenodd" d="M15.2273 5.88794C15.4728 5.88794 15.6718 6.08692 15.6718 6.33238V18.7768C15.6718 19.0223 15.4728 19.2213 15.2273 19.2213C14.9819 19.2213 14.7829 19.0223 14.7829 18.7768V6.33238C14.7829 6.08692 14.9819 5.88794 15.2273 5.88794Z" fill="#646470"/>
<path fill-rule="evenodd" clip-rule="evenodd" d="M10.4686 14.9027C10.6422 14.7349 10.9236 14.7349 11.0971 14.9027L15.2273 18.895L19.3575 14.9027C19.5311 14.7349 19.8125 14.7349 19.986 14.9027C20.1596 15.0704 20.1596 15.3425 19.986 15.5102L15.2273 20.1102L10.4686 15.5102C10.295 15.3425 10.295 15.0704 10.4686 14.9027Z" fill="#646470"/>
<path d="M5.23084 20.1102H4.11621L6.62073 13.8879H7.83391L10.3384 20.1102H9.2238L7.25621 15.0181H7.20184L5.23084 20.1102ZM5.41775 17.6735H9.0335V18.4635H5.41775V17.6735Z" fill="#646470"/>
<path d="M5.03226 12.9991V12.3732L8.28186 7.58499H5.0051V6.77683H9.42239V7.4027L6.17278 12.1909H9.44954V12.9991H5.03226Z" fill="#646470"/>
</svg>
