<svg width="24" height="24" viewBox="0 0 24 24" fill="none" xmlns="http://www.w3.org/2000/svg">
<path d="M14.6667 7.6C14.6667 9.03594 13.4728 10.2 12 10.2C10.5272 10.2 9.33333 9.03594 9.33333 7.6C9.33333 6.16406 10.5272 5 12 5C13.4728 5 14.6667 6.16406 14.6667 7.6Z" fill="#18181B"/>
<path d="M19.1111 9.33333C19.1111 10.2906 18.3152 11.0667 17.3333 11.0667C16.3515 11.0667 15.5556 10.2906 15.5556 9.33333C15.5556 8.37604 16.3515 7.6 17.3333 7.6C18.3152 7.6 19.1111 8.37604 19.1111 9.33333Z" fill="#18181B"/>
<path d="M15.5556 15.4C15.5556 13.4854 13.9637 11.9333 12 11.9333C10.0363 11.9333 8.44444 13.4854 8.44444 15.4V18H15.5556V15.4Z" fill="#18181B"/>
<path d="M8.44444 9.33333C8.44444 10.2906 7.64851 11.0667 6.66667 11.0667C5.68483 11.0667 4.88889 10.2906 4.88889 9.33333C4.88889 8.37604 5.68483 7.6 6.66667 7.6C7.64851 7.6 8.44444 8.37604 8.44444 9.33333Z" fill="#18181B"/>
<path d="M17.3333 18V15.4C17.3333 14.4864 17.0917 13.6278 16.6673 12.8817C16.8802 12.8284 17.1034 12.8 17.3333 12.8C18.8061 12.8 20 13.9641 20 15.4V18H17.3333Z" fill="#18181B"/>
<path d="M7.33268 12.8817C6.90831 13.6278 6.66667 14.4864 6.66667 15.4V18H4V15.4C4 13.9641 5.19391 12.8 6.66667 12.8C6.89663 12.8 7.11979 12.8284 7.33268 12.8817Z" fill="#18181B"/>
</svg>
