<svg width="135" height="37" viewBox="0 0 135 37" fill="none" xmlns="http://www.w3.org/2000/svg">
<path d="M87.9758 5.32471L84.237 6.091C83.9589 4.62763 82.7602 3.90583 81.5295 3.90583C80.257 3.90583 79.4472 4.60291 79.4472 5.48785C79.4472 6.11572 79.7254 6.58044 80.6976 6.79056L83.9146 7.50988C86.6024 8.1155 88.1752 9.58135 88.1752 12.0458C88.1752 15.3706 85.2363 17.091 81.7757 17.091C78.2781 17.091 75.4082 15.4175 74.9922 12.3697L78.9303 11.6034C79.3242 13.2076 80.4342 13.9047 81.9873 13.9047C83.4223 13.9047 84.2789 13.2546 84.2789 12.3004C84.2789 11.6034 83.954 11.1609 82.8439 10.9285L79.6023 10.2315C77.3871 9.71977 75.4328 8.55797 75.4328 5.72021C75.4328 2.69707 77.9335 0.813477 81.5689 0.813477C84.9434 0.813477 87.3974 2.48696 87.9758 5.32471Z" fill="#252A64"/>
<path d="M102.655 16.7425H98.9633V15.813C98.06 16.6263 96.8564 17.091 95.3501 17.091C92.2709 17.091 89.689 14.6018 89.689 10.9112C89.689 7.22066 92.2808 4.73145 95.3501 4.73145C96.8564 4.73145 98.0575 5.19864 98.9633 6.0119V5.08246H102.655V16.7425ZM98.9633 10.9063C98.9633 9.11415 97.6194 7.88313 96.1155 7.88313C94.4935 7.88313 93.3145 9.11909 93.3145 10.9063C93.3145 12.6935 94.4935 13.9294 96.1155 13.9294C97.6071 13.9294 98.951 12.7182 98.951 10.9063H98.9633Z" fill="#252A64"/>
<path d="M105.341 16.7423V0H109.033V16.7423H105.341Z" fill="#252A64"/>
<path d="M123.127 11.858H114.608C114.908 13.2546 115.858 14.1148 117.109 14.1148C117.965 14.1148 118.959 13.9047 119.585 12.7652L122.873 13.44C121.888 15.9119 119.769 17.091 117.109 17.091C113.751 17.091 110.972 14.6018 110.972 10.9112C110.972 7.22066 113.751 4.73145 117.126 4.73145C120.414 4.73145 123.053 7.10448 123.122 10.9112L123.127 11.858ZM114.677 9.58134H119.469C119.122 8.32561 118.196 7.74224 117.131 7.74224C116.578 7.73915 116.039 7.91694 115.595 8.24872C115.151 8.58051 114.827 9.04827 114.672 9.58134H114.677Z" fill="#252A64"/>
<path d="M127.869 12.9527C128.032 13.9415 128.933 14.3246 129.93 14.3246C130.926 14.3246 131.433 13.9044 131.433 13.3927C131.433 12.9972 131.133 12.6956 130.277 12.5325L127.916 12.0677C125.762 11.6722 124.534 10.5104 124.534 8.67381C124.534 6.27853 126.594 4.71875 129.536 4.71875C132.43 4.71875 134.353 6.04616 134.815 8.06819L131.433 8.74302C131.318 8.02122 130.624 7.37111 129.489 7.37111C128.504 7.37111 128.17 7.86549 128.17 8.2783C128.17 8.60212 128.307 8.92842 129.051 9.09156L131.783 9.65022C133.981 10.1149 135 11.4399 135 13.1603C135 15.741 132.785 17.0907 129.72 17.0907C126.988 17.0907 124.65 16.1019 124.256 13.6967L127.869 12.9527Z" fill="#252A64"/>
<path d="M89.62 35.6595H85.8221V29.4971H79.2922V35.6595H75.4722V20.0865H79.2922V26.155H85.8221V20.0791H89.62V35.6595Z" fill="#252A64"/>
<path d="M103.953 35.6598H100.261V34.5425C99.7996 35.0215 99.2445 35.3991 98.6306 35.6515C98.0166 35.9038 97.3572 36.0253 96.6941 36.0083C93.9866 36.0083 92.1775 34.0777 92.1775 31.1485V23.98H95.8695V30.3649C95.8695 31.7368 96.6793 32.6663 97.8607 32.6663C99.3203 32.6663 100.27 31.6775 100.27 29.4108V23.9874H103.962L103.953 35.6598Z" fill="#252A64"/>
<path d="M119.627 29.8236C119.627 33.5314 117.035 36.0033 113.965 36.0033C112.462 36.0033 111.258 35.5386 110.355 34.7254V35.6548H106.663V18.9175H110.355V24.9267C111.258 24.1134 112.462 23.6462 113.965 23.6462C117.035 23.6364 119.627 26.1478 119.627 29.8236ZM115.991 29.8236C115.991 28.0314 114.81 26.8004 113.19 26.8004C111.686 26.8004 110.342 28.0364 110.342 29.8236C110.342 31.6107 111.686 32.8467 113.19 32.8467C114.81 32.8368 115.989 31.6355 115.989 29.8236H115.991Z" fill="#252A64"/>
<path d="M42.4164 8.85924C38.6875 8.85924 17.9112 8.4143 16.5083 8.4143C15.1178 8.39095 13.7289 8.51858 12.3658 8.79496C11.2172 9.05699 10.6429 9.72523 10.6429 10.7997C10.6429 11.7275 11.1351 12.404 12.1197 12.8291C13.1042 13.2543 14.8485 13.8014 17.3525 14.4705C20.2717 15.2483 22.4975 16.1942 24.0301 17.3082C25.5627 18.4222 26.5973 19.7109 27.1339 21.1743C27.7148 22.7717 28 24.4622 27.9757 26.1626C27.9757 29.4255 26.7196 32.0491 24.2073 34.0332C21.6951 36.0173 17.8915 37.0061 12.7965 36.9995C10.5127 37.0105 8.23254 36.8153 5.98354 36.4161C4.09302 36.1041 2.24953 35.5526 0.497197 34.7748V26.1626C2.27518 26.9806 4.13161 27.6142 6.03768 28.0536C7.9053 28.515 9.81989 28.7572 11.7431 28.7754C13.5891 28.7754 14.9839 28.618 15.9274 28.3033C16.8709 27.9885 17.341 27.275 17.3377 26.1626C17.3538 25.8151 17.2898 25.4686 17.1506 25.15C17.0114 24.8314 16.8008 24.5494 16.5353 24.326C15.9988 23.881 15.1676 23.4732 14.042 23.1024C12.9163 22.7316 11.4485 22.2685 9.63863 21.7132C7.23964 20.9337 5.33784 20.0809 3.93323 19.1548C2.62477 18.3359 1.57685 17.1583 0.91315 15.7608C0.304377 14.426 0 12.7937 0 10.864C0 7.3423 1.24626 4.66276 3.73879 2.8253C6.23131 0.987847 9.934 0.0699484 14.8469 0.0715963C16.8036 0.0715963 38.6875 0.00732422 42.3327 0.00732422L42.4164 8.85924Z" fill="#E97179"/>
<path d="M54.5656 0.620605V13.8181H31.8523V13.9417V22.8752V24.0074V36.4485H42.2687V23.0952H54.5656V36.4485H64.9796V0.620605H54.5656Z" fill="#F4A3AE"/>
</svg>
