<svg width="57" height="22" viewBox="0 0 57 22" fill="none" xmlns="http://www.w3.org/2000/svg">
<path d="M26 5.26435C23.7143 5.26435 10.9791 4.99974 10.1191 4.99974C9.26678 4.98586 8.41543 5.06176 7.57987 5.22613C6.8758 5.38196 6.52376 5.77937 6.52376 6.41837C6.52376 6.97014 6.82551 7.37245 7.429 7.6253C8.03249 7.87815 9.10168 8.20353 10.6366 8.60143C12.4259 9.06402 13.7903 9.62657 14.7298 10.2891C15.6692 10.9516 16.3034 11.718 16.6323 12.5883C16.9883 13.5383 17.1632 14.5437 17.1483 15.5549C17.1483 17.4954 16.3783 19.0557 14.8384 20.2356C13.2985 21.4156 10.967 22.0037 7.8439 21.9997C6.44399 22.0063 5.0463 21.8902 3.66773 21.6528C2.5089 21.4673 1.3789 21.1393 0.304767 20.6767V15.5549C1.39462 16.0414 2.53255 16.4182 3.70092 16.6795C4.84571 16.9539 6.0193 17.0979 7.19816 17.1088C8.32971 17.1088 9.18466 17.0152 9.76301 16.828C10.3414 16.6408 10.6295 16.2164 10.6275 15.5549C10.6374 15.3482 10.5981 15.1421 10.5128 14.9527C10.4275 14.7632 10.2984 14.5955 10.1357 14.4626C9.80676 14.198 9.29731 13.9555 8.60732 13.7349C7.91733 13.5144 7.01762 13.239 5.90819 12.9088C4.43768 12.4452 3.27194 11.938 2.41095 11.3872C1.60891 10.9003 0.966563 10.1999 0.559734 9.36881C0.186574 8.57497 0 7.60423 0 6.45658C0 4.36221 0.763922 2.76865 2.29177 1.67589C3.81961 0.58313 6.08925 0.0372434 9.10068 0.0382235C10.3001 0.0382235 23.7143 0 25.9487 0L26 5.26435Z" fill="#E97179"/>
<path d="M33.3984 0V8.1039H19V8.1798V13.6654V14.3606V22H25.6032V13.8005H33.3984V22H40V0H33.3984Z" fill="#F4A3AE"/>
</svg>
