<svg width="24" height="24" viewBox="0 0 24 24" fill="none" xmlns="http://www.w3.org/2000/svg">
<path d="M10 7C9.44772 7 9 7.44771 9 8C9 8.55228 9.44772 9 10 9L15.5858 9L14.2929 10.2929C13.9024 10.6834 13.9024 11.3166 14.2929 11.7071C14.6834 12.0976 15.3166 12.0976 15.7071 11.7071L18.7071 8.70711C18.8946 8.51957 19 8.26522 19 8C19 7.73478 18.8946 7.48043 18.7071 7.29289L15.7071 4.29289C15.3166 3.90237 14.6834 3.90237 14.2929 4.29289C13.9024 4.68342 13.9024 5.31658 14.2929 5.70711L15.5858 7L10 7Z" fill="#111827"/>
<path d="M14 17C14.5523 17 15 16.5523 15 16C15 15.4477 14.5523 15 14 15L8.41421 15L9.70711 13.7071C10.0976 13.3166 10.0976 12.6834 9.70711 12.2929C9.31658 11.9024 8.68342 11.9024 8.2929 12.2929L5.29289 15.2929C5.10536 15.4804 5 15.7348 5 16C5 16.2652 5.10536 16.5196 5.29289 16.7071L8.29289 19.7071C8.68342 20.0976 9.31658 20.0976 9.70711 19.7071C10.0976 19.3166 10.0976 18.6834 9.70711 18.2929L8.41421 17L14 17Z" fill="#111827"/>
</svg>
